# xmcd CD database file generated by MAGIX_Freedb v0.9beta0
# 
# Track frame offsets:
#      150
#      16691
#      28561
#      43725
#      58565
#      73999
#      91620
#      108107
#      124135
#      141756
#      157595
#      172651
#      188490
#      201737
#      216199
#      234981
# 
# Disc length: 3333 seconds
# 
# Revision: 0 
# Processed by: cddbd v1.5.1PL0 Copyright (c) Steve Scherf et al.
# Submitted via: MAGIX_Freedb v0.9beta0
# 
DISCID=c90d0310
DTITLE=K3 - Alle Kleuren
DYEAR=2000
DGENRE=
TTITLE0=K3 - Alle Kleuren
TTITLE1=K3 - Hippie Shake
TTITLE2=K3 - Yippee Yippee
TTITLE3=K3 - Leonardo
TTITLE4=K3 - Oma's aan de top
TTITLE5=K3 - 1, 2, Doe met me mee
TTITLE6=K3 - Miljoen
TTITLE7=K3 - Laat de wind maar waaien
TTITLE8=K3 - Om te dromen
TTITLE9=K3 - Ik schreew het van de daken
TTITLE10=K3 - Jongens zijn gek
TTITLE11=K3 - Doe maar
TTITLE12=K3 - De gordel is er weer
TTITLE13=
TTITLE14=
TTITLE15=
EXTD=
EXTT0=
EXTT1=
EXTT2=
EXTT3=
EXTT4=
EXTT5=
EXTT6=
EXTT7=
EXTT8=
EXTT9=
EXTT10=
EXTT11=
EXTT12=
EXTT13=
EXTT14=
EXTT15=
PLAYORDER=
